<?xml version="1.0" encoding="utf-8"?>
<!-- Generator: Adobe Illustrator 21.0.0, SVG Export Plug-In . SVG Version: 6.00 Build 0)  -->
<svg version="1.1" id="Capa_1" xmlns="http://www.w3.org/2000/svg" xmlns:xlink="http://www.w3.org/1999/xlink" x="0px" y="0px"
	 viewBox="0 0 187 78" style="enable-background:new 0 0 187 78;" xml:space="preserve">
<style type="text/css">
	.st0{fill:#153073;}
	.st1{fill:#E20413;}
	.st2{fill:#F46178;}
	.st3{fill:#FFFFFF;}
	.st4{fill:#C4D6ED;}
</style>
<g>
	<path class="st0" d="M183.7,68.5c0,2.4-2,4.4-4.4,4.4H9.6c-2.4,0-4.4-2-4.4-4.4V9.9c0-2.4,2-4.4,4.4-4.4h169.7c2.4,0,4.4,2,4.4,4.4
		V68.5z"/>
	<path class="st1" d="M67.2,39.3c-1.1,0.5-3.2,1.1-6,1.1c-6.4,0-11.2-4-11.2-11.5C50,21.8,54.8,17,61.8,17c2.8,0,4.6,0.6,5.4,1
		l-0.7,2.4c-1.1-0.5-2.7-0.9-4.6-0.9c-5.3,0-8.8,3.4-8.8,9.3c0,5.5,3.2,9.1,8.7,9.1c1.8,0,3.6-0.4,4.8-0.9L67.2,39.3z"/>
	<path class="st1" d="M73.8,17.4v13.4c0,5.1,2.3,7.2,5.3,7.2c3.4,0,5.5-2.2,5.5-7.2V17.4h3v13.2c0,7-3.7,9.8-8.6,9.8
		c-4.6,0-8.1-2.7-8.1-9.7V17.4H73.8z"/>
	<path class="st1" d="M104.3,29.4h-8.8v8.2h9.8V40H92.6V17.4h12.2v2.5h-9.3V27h8.8V29.4z"/>
	<path class="st1" d="M114.4,40L107,17.4h3.2l3.5,11.2c1,3.1,1.8,5.8,2.4,8.5h0.1c0.6-2.6,1.6-5.5,2.6-8.4l3.8-11.2h3.1L117.6,40
		H114.4z"/>
	<path class="st1" d="M129.9,32.9l-2.4,7.1h-3l7.7-22.7h3.5l7.7,22.7h-3.1l-2.4-7.1H129.9z M137.4,30.6l-2.2-6.5
		c-0.5-1.5-0.8-2.8-1.2-4.1h-0.1c-0.3,1.3-0.7,2.7-1.1,4.1l-2.2,6.6H137.4z"/>
	<path class="st1" d="M146.4,36.4c1.3,0.8,3.2,1.5,5.2,1.5c3,0,4.7-1.6,4.7-3.9c0-2.1-1.2-3.3-4.3-4.5c-3.7-1.3-6-3.2-6-6.4
		c0-3.5,2.9-6.2,7.3-6.2c2.3,0,4,0.5,5,1.1l-0.8,2.4c-0.7-0.4-2.3-1.1-4.3-1.1c-3.1,0-4.3,1.8-4.3,3.4c0,2.1,1.4,3.2,4.5,4.4
		c3.8,1.5,5.8,3.3,5.8,6.7c0,3.5-2.6,6.5-7.9,6.5c-2.2,0-4.6-0.6-5.8-1.4L146.4,36.4z"/>
	<g>
		<rect x="15.6" y="50.7" class="st2" width="159.1" height="0.7"/>
	</g>
	<g>
		<rect x="40.5" y="9.3" class="st2" width="0.7" height="59"/>
	</g>
	<path class="st3" d="M29.7,42.6h4.2v1h-4.2V42.6z"/>
	<path class="st3" d="M33.9,41.8h-4.2v-1.1l1.6-0.9c0.4-0.3,1-0.5,1.5-0.7v0c-0.6,0.1-1.1,0.1-1.8,0.1h-1.2v-0.9h4.2v1l-1.6,0.9
		c-0.5,0.3-1,0.5-1.5,0.7l0,0c0.6,0,1.2,0,1.9,0h1.3V41.8z"/>
	<path class="st3" d="M33.7,33.9c0.1,0.3,0.2,0.9,0.2,1.4c0,0.8-0.2,1.3-0.6,1.7c-0.4,0.4-0.9,0.6-1.5,0.6c-1.4,0-2.2-1-2.2-2.4
		c0-0.5,0.1-1,0.2-1.2l0.8,0.2c-0.1,0.2-0.2,0.5-0.2,1c0,0.8,0.5,1.4,1.4,1.4c0.9,0,1.4-0.5,1.4-1.3c0-0.2,0-0.4-0.1-0.5h-0.9v0.7
		h-0.8v-1.6H33.7z"/>
	<path class="st3" d="M32.1,30.6v1.6h1v-1.7h0.8v2.7h-4.2v-2.6h0.8v1.7h0.9v-1.6H32.1z"/>
	<path class="st3" d="M33.9,29.8h-4.2v-1.1l1.6-0.9c0.4-0.3,1-0.5,1.5-0.7v0c-0.6,0.1-1.1,0.1-1.8,0.1h-1.2v-0.9h4.2v1l-1.6,0.9
		c-0.5,0.3-1,0.5-1.5,0.7l0,0c0.6,0,1.2,0,1.9,0h1.3V29.8z"/>
	<path class="st3" d="M29.7,24.4h4.2v1h-4.2V24.4z"/>
	<path class="st3" d="M32.1,21.1v1.6h1v-1.7h0.8v2.7h-4.2V21h0.8v1.7h0.9v-1.6H32.1z"/>
	<path class="st3" d="M29.7,20.2c-0.1-0.3-0.1-0.8-0.1-1.3c0-0.6,0.1-1.1,0.3-1.4c0.2-0.3,0.5-0.4,0.9-0.4c0.5,0,0.9,0.4,1,0.8h0
		c0.1-0.3,0.4-0.5,0.8-0.6c0.5-0.1,1-0.3,1.2-0.3v1c-0.1,0.1-0.5,0.2-1,0.3c-0.5,0.1-0.7,0.3-0.7,0.7v0.3h1.7v1H29.7z M31.6,19.3
		v-0.4c0-0.5-0.2-0.8-0.6-0.8c-0.4,0-0.6,0.3-0.6,0.7c0,0.2,0,0.4,0,0.4H31.6z"/>
	<path class="st3" d="M31.7,12.6c1.4,0,2.2,0.8,2.2,2.1c0,1.3-1,2-2.2,2c-1.3,0-2.2-0.8-2.2-2.1C29.6,13.4,30.6,12.6,31.7,12.6z
		 M31.8,15.7c0.8,0,1.4-0.4,1.4-1c0-0.6-0.6-1-1.4-1c-0.8,0-1.4,0.4-1.4,1C30.4,15.3,31,15.7,31.8,15.7z"/>
	<path class="st3" d="M32.9,12c0.1-0.3,0.3-0.7,0.3-1.1c0-0.4-0.2-0.7-0.5-0.7c-0.3,0-0.4,0.2-0.6,0.7c-0.2,0.7-0.6,1.2-1.3,1.2
		c-0.7,0-1.3-0.6-1.3-1.6c0-0.5,0.1-0.8,0.2-1.1l0.8,0.2c-0.1,0.2-0.2,0.5-0.2,0.9c0,0.4,0.2,0.6,0.4,0.6c0.3,0,0.4-0.2,0.6-0.8
		c0.3-0.8,0.7-1.1,1.3-1.1c0.7,0,1.3,0.5,1.3,1.7c0,0.5-0.1,1-0.3,1.2L32.9,12z"/>
	<path class="st3" d="M68.4,41.1c-1.1,0.5-3.2,1.1-6,1.1c-6.4,0-11.2-4-11.2-11.5c0-7.1,4.8-11.9,11.8-11.9c2.8,0,4.6,0.6,5.4,1
		l-0.7,2.4c-1.1-0.5-2.7-0.9-4.6-0.9c-5.3,0-8.8,3.4-8.8,9.3c0,5.5,3.2,9.1,8.7,9.1c1.8,0,3.6-0.4,4.8-0.9L68.4,41.1z"/>
	<path class="st3" d="M75,19.2v13.4c0,5.1,2.3,7.2,5.3,7.2c3.4,0,5.5-2.2,5.5-7.2V19.2h3v13.2c0,7-3.7,9.8-8.6,9.8
		c-4.6,0-8.1-2.7-8.1-9.7V19.2H75z"/>
	<path class="st3" d="M105.5,31.2h-8.8v8.2h9.8v2.5H93.8V19.2H106v2.5h-9.3v7.2h8.8V31.2z"/>
	<path class="st3" d="M115.6,41.8l-7.4-22.7h3.2l3.5,11.2c1,3.1,1.8,5.8,2.4,8.5h0.1c0.6-2.6,1.6-5.5,2.6-8.4l3.8-11.2h3.1
		l-8.1,22.7H115.6z"/>
	<path class="st3" d="M131.1,34.7l-2.4,7.1h-3l7.7-22.7h3.5l7.7,22.7h-3.1l-2.4-7.1H131.1z M138.6,32.4l-2.2-6.5
		c-0.5-1.5-0.8-2.8-1.2-4.1h-0.1c-0.3,1.3-0.7,2.7-1.1,4.1l-2.2,6.6H138.6z"/>
	<path class="st3" d="M147.6,38.3c1.3,0.8,3.2,1.5,5.2,1.5c3,0,4.7-1.6,4.7-3.9c0-2.1-1.2-3.3-4.3-4.5c-3.7-1.3-6-3.2-6-6.4
		c0-3.5,2.9-6.2,7.3-6.2c2.3,0,4,0.5,5,1.1l-0.8,2.4c-0.7-0.4-2.3-1.1-4.3-1.1c-3.1,0-4.3,1.8-4.3,3.4c0,2.1,1.4,3.2,4.5,4.4
		c3.8,1.5,5.8,3.3,5.8,6.7c0,3.5-2.6,6.5-7.9,6.5c-2.2,0-4.6-0.6-5.8-1.4L147.6,38.3z"/>
	<path class="st3" d="M98.6,59c0.4-0.1,0.8-0.1,1.3-0.1c0.8,0,1.3,0.1,1.7,0.5c0.4,0.3,0.7,0.9,0.7,1.6c0,0.8-0.3,1.4-0.7,1.7
		c-0.4,0.4-1.1,0.5-2,0.5c-0.5,0-0.9,0-1.1-0.1V59z M99.6,62.5c0.1,0,0.2,0,0.3,0c0.9,0,1.4-0.5,1.4-1.5c0-0.9-0.5-1.3-1.3-1.3
		c-0.2,0-0.4,0-0.4,0V62.5z"/>
	<path class="st3" d="M103.9,59v4.2h-1V59H103.9z"/>
	<path class="st3" d="M104.8,62.2c0.3,0.1,0.7,0.3,1.1,0.3c0.4,0,0.7-0.2,0.7-0.5c0-0.3-0.2-0.4-0.7-0.6c-0.7-0.2-1.2-0.6-1.2-1.3
		c0-0.7,0.6-1.3,1.6-1.3c0.5,0,0.8,0.1,1.1,0.2l-0.2,0.8c-0.2-0.1-0.5-0.2-0.9-0.2c-0.4,0-0.6,0.2-0.6,0.4c0,0.3,0.2,0.4,0.8,0.6
		c0.8,0.3,1.1,0.7,1.1,1.3c0,0.7-0.5,1.3-1.7,1.3c-0.5,0-1-0.1-1.2-0.3L104.8,62.2z"/>
	<path class="st3" d="M110.7,61.4h-1.6v1h1.7v0.8h-2.7V59h2.6v0.8h-1.7v0.9h1.6V61.4z"/>
	<path class="st3" d="M111.5,63.2V59h1.1l0.9,1.6c0.3,0.4,0.5,1,0.7,1.5h0c-0.1-0.6-0.1-1.1-0.1-1.8V59h0.9v4.2h-1l-0.9-1.6
		c-0.3-0.5-0.5-1-0.7-1.5l0,0c0,0.6,0,1.2,0,1.9v1.3H111.5z M112.4,58.7c0-0.5,0.2-0.8,0.5-0.8c0.2,0,0.3,0.1,0.4,0.1
		c0.1,0.1,0.2,0.1,0.3,0.1c0.1,0,0.2-0.1,0.2-0.3h0.4c0,0.6-0.2,0.8-0.5,0.8c-0.2,0-0.3-0.1-0.4-0.1c-0.1-0.1-0.2-0.1-0.3-0.1
		c-0.1,0-0.1,0.1-0.2,0.3H112.4z"/>
	<path class="st3" d="M119.8,61.1c0,1.4-0.8,2.2-2.1,2.2c-1.3,0-2-1-2-2.2c0-1.3,0.8-2.2,2.1-2.2C119.1,58.9,119.8,59.9,119.8,61.1z
		 M116.7,61.1c0,0.8,0.4,1.4,1,1.4c0.6,0,1-0.6,1-1.4c0-0.8-0.4-1.4-1-1.4C117.1,59.7,116.7,60.3,116.7,61.1z"/>
	<path class="st3" d="M125.2,63c-0.3,0.1-0.9,0.2-1.4,0.2c-0.8,0-1.3-0.2-1.7-0.6c-0.4-0.4-0.6-0.9-0.6-1.5c0-1.4,1-2.2,2.4-2.2
		c0.5,0,1,0.1,1.2,0.2l-0.2,0.8c-0.2-0.1-0.5-0.2-1-0.2c-0.8,0-1.4,0.5-1.4,1.4c0,0.9,0.5,1.4,1.3,1.4c0.2,0,0.4,0,0.5-0.1v-0.9
		h-0.7v-0.8h1.6V63z"/>
	<path class="st3" d="M128.5,61.4h-1.6v1h1.7v0.8H126V59h2.6v0.8h-1.7v0.9h1.6V61.4z"/>
	<path class="st3" d="M133.2,61.1c0,1.4-0.8,2.2-2.1,2.2c-1.3,0-2-1-2-2.2c0-1.3,0.8-2.2,2.1-2.2C132.5,58.9,133.2,59.9,133.2,61.1z
		 M130.2,61.1c0,0.8,0.4,1.4,1,1.4c0.6,0,1-0.6,1-1.4c0-0.8-0.4-1.4-1-1.4C130.5,59.7,130.2,60.3,130.2,61.1z"/>
	<path class="st3" d="M134.5,59.8h-1.1V59h3.3v0.8h-1.2v3.4h-1V59.8z"/>
	<path class="st3" d="M139.7,61.4h-1.6v1h1.7v0.8h-2.7V59h2.6v0.8h-1.7v0.9h1.6V61.4z M139.6,58l-0.8,0.8H138l0.5-0.8H139.6z"/>
	<path class="st3" d="M143.6,63.1c-0.2,0.1-0.6,0.2-1.1,0.2c-1.5,0-2.2-0.9-2.2-2.1c0-1.4,1-2.3,2.3-2.3c0.5,0,0.9,0.1,1,0.2
		l-0.2,0.8c-0.2-0.1-0.5-0.2-0.8-0.2c-0.8,0-1.4,0.5-1.4,1.4c0,0.9,0.5,1.4,1.4,1.4c0.3,0,0.6-0.1,0.8-0.1L143.6,63.1z"/>
	<path class="st3" d="M144.3,63.2V59h1.1l0.9,1.6c0.3,0.4,0.5,1,0.7,1.5h0c-0.1-0.6-0.1-1.1-0.1-1.8V59h0.9v4.2h-1l-0.9-1.6
		c-0.3-0.5-0.5-1-0.7-1.5l0,0c0,0.6,0,1.2,0,1.9v1.3H144.3z"/>
	<path class="st3" d="M149.6,59v4.2h-1V59H149.6z"/>
	<path class="st3" d="M153.5,63.1c-0.2,0.1-0.6,0.2-1.1,0.2c-1.5,0-2.2-0.9-2.2-2.1c0-1.4,1-2.3,2.3-2.3c0.5,0,0.9,0.1,1,0.2
		l-0.2,0.8c-0.2-0.1-0.5-0.2-0.8-0.2c-0.8,0-1.4,0.5-1.4,1.4c0,0.9,0.5,1.4,1.4,1.4c0.3,0,0.6-0.1,0.8-0.1L153.5,63.1z"/>
	<path class="st3" d="M157.9,61.1c0,1.4-0.8,2.2-2.1,2.2c-1.3,0-2-1-2-2.2c0-1.3,0.8-2.2,2.1-2.2C157.1,58.9,157.9,59.9,157.9,61.1z
		 M154.8,61.1c0,0.8,0.4,1.4,1,1.4c0.6,0,1-0.6,1-1.4c0-0.8-0.4-1.4-1-1.4C155.2,59.7,154.8,60.3,154.8,61.1z"/>
	<g>
		<polygon class="st4" points="37.3,65.1 36.6,65.1 36.6,55.4 19,55.4 19,54.7 37.3,54.7 		"/>
	</g>
	<g>
		<polygon class="st4" points="45.1,65.1 44.4,65.1 44.4,54.7 169.9,54.7 169.9,55.4 45.1,55.4 		"/>
	</g>
	<g>
		<polygon class="st4" points="37.3,47.5 19,47.5 19,46.8 36.6,46.8 36.6,13.5 37.3,13.5 		"/>
	</g>
	<g>
		<polygon class="st4" points="169.9,47.5 44.4,47.5 44.4,13.5 45.1,13.5 45.1,46.8 169.9,46.8 		"/>
	</g>
</g>
</svg>
