<?xml version="1.0" encoding="utf-8"?>
<!-- Generator: Adobe Illustrator 21.0.0, SVG Export Plug-In . SVG Version: 6.00 Build 0)  -->
<svg version="1.1" id="Capa_1" xmlns="http://www.w3.org/2000/svg" xmlns:xlink="http://www.w3.org/1999/xlink" x="0px" y="0px"
	 viewBox="0 0 54 75" style="enable-background:new 0 0 54 75;" xml:space="preserve">
<style type="text/css">
	.st0{fill:#103073;}
	.st1{fill:#FFFFFF;}
</style>
<g>
	<polygon class="st0" points="26.2,72 2.2,24.3 14.2,3.5 38.2,3.5 50.2,24.3 	"/>
	<polygon class="st1" points="16.3,41.6 6.3,24.3 16.3,7.1 36.1,7.1 46.1,24.3 36.1,41.6 	"/>
	<g>
		<path class="st0" d="M20.1,32.6H17V13.7h3.2V32.6z"/>
		<path class="st0" d="M38.2,26.3L38.2,26.3c0.1,2-0.6,3.5-1.8,4.7c-1.3,1.2-3,1.8-5.2,1.8c-2.2,0-4-0.7-5.4-2.2
			c-1.4-1.5-2.1-3.4-2.1-5.7v-3.6c0-2.3,0.7-4.2,2-5.7c1.4-1.5,3.1-2.2,5.3-2.2c2.2,0,4,0.6,5.3,1.8c1.3,1.2,1.9,2.8,1.9,4.7l0,0.1
			h-3.1c0-1.3-0.3-2.3-1-3c-0.7-0.7-1.7-1.1-3-1.1c-1.3,0-2.3,0.5-3.1,1.5s-1.1,2.3-1.1,3.8V25c0,1.6,0.4,2.8,1.2,3.9
			c0.8,1,1.8,1.5,3.1,1.5c1.3,0,2.3-0.3,3-1c0.7-0.7,1-1.7,1-3H38.2z"/>
	</g>
</g>
</svg>
