<?xml version="1.0" encoding="utf-8"?>
<!-- Generator: Adobe Illustrator 21.0.0, SVG Export Plug-In . SVG Version: 6.00 Build 0)  -->
<svg version="1.1" id="Capa_1" xmlns="http://www.w3.org/2000/svg" xmlns:xlink="http://www.w3.org/1999/xlink" x="0px" y="0px"
	 viewBox="0 0 135 78" style="enable-background:new 0 0 135 78;" xml:space="preserve">
<style type="text/css">
	.st0{fill:#153073;}
	.st1{fill:#E20413;}
	.st2{fill:#FFFFFF;}
</style>
<g>
	<path class="st0" d="M21.6,5.1h93.8c0,0,11,0,13,11.6v33.4c0,0-0.8,9.9-11.2,11.5H21.6c0,0-11.2,0.7-13.2-11.8V17.6
		C8.4,17.6,9.5,6.2,21.6,5.1z"/>
	<path class="st1" d="M12.6,40.2h12.1c0,0-0.5,11,5.1,13.1h32.5l1.1,2.2H21.3C21.3,55.6,11.5,55,12.6,40.2z"/>
	<path class="st1" d="M102.8,11.1c0,0,6.2,1.1,5.8,12.1h12.9c0,0,1.6-11.9-9.7-14.1H57.1L56,11L102.8,11.1z"/>
	<path class="st1" d="M46.7,23.7l21,30.1h35.6c0,0,6.5-0.8,5.6-11.4h12.5c0,0,1.3,11.3-8.9,13.3H65.2L44.3,26.7l-3.4,4.8l-4.3,0
		l5.5-7.8L36.7,16h4.7l3,4.4l7.7-11.3h4.4L46.7,23.7z"/>
	<path class="st1" d="M77.4,16v4.7H67.2c0,0-5.1,0.3-5.2,6v4.2c0,0,0,5.3,5.7,5.2c5.7,0,9.7,0,9.7,0v4.7H64.4c0,0-9.1-1.3-8.9-10.9
		v-3.5c0,0-0.3-8.9,9.8-10.3H77.4z"/>
	<path class="st1" d="M79.2,29.4c0,0,0.7-4,5.3-5c0,0,3.2-0.7,6.2,0.3c3,0.9,4.1,3.7,4.3,5.1c0,0,0.2,2.9,0,4.3c0,0-0.4,4.8-5.4,5.7
		c0,0-4.2,0.4-5.1-0.1c0,0-5.2-0.5-5.5-6.8L79.2,29.4z M86.8,26.9c-2.5,0-3.8,2-3.8,4.9c0,4.1,1.7,5.5,4,5.5c2.2,0,4.1-1.4,4.1-5.4
		C91.1,29.1,89.8,26.9,86.8,26.9z"/>
	<path class="st1" d="M108.1,24.9V28h-7.7c0,0-1.6-0.1-2.2,1.9c-0.5,1.9-0.4,4.5,0,5.6c0.4,1.1,1.2,2,2.2,2.2h4.1l0-3.3l-3.9,0v-3.3
		h7.5v9.6h-8.1c0,0-5-0.8-5.5-5.3v-5.3c0,0,0.6-4.6,4.9-5.2H108.1z"/>
	<path class="st1" d="M113,31.4h8.9v3.1H113c0,0-0.3,2.3,1.9,3.1h7v3h-7.3c0,0-5-0.2-5.8-5.9v-3.9c0,0,0.4-4.9,5-5.7h8.1v3.1h-6.7
		C115.2,28.1,112.6,28.7,113,31.4z"/>
	<path class="st1" d="M35,9.1v5.6H23.9c0,0-4.6,0.4-4.4,6.4H35v5.6H19.5c0,0-0.4,5.3,4.5,6.3h11v5.7H23.1c0,0-8.8,0.2-10.6-11.9
		v-5.8c0,0,0.9-10.8,10.2-12H35z"/>
	<path class="st2" d="M36.9,10.1v5.6H25.8c0,0-4.6,0.4-4.4,6.4h15.5v5.6H21.4c0,0-0.4,5.3,4.5,6.3h11v5.7H25c0,0-8.8,0.2-10.6-11.9
		v-5.8c0,0,0.9-10.8,10.2-12H36.9z"/>
	<path class="st2" d="M79.4,16.9v4.7H69.2c0,0-5.1,0.3-5.2,6v4.2c0,0,0,5.3,5.7,5.2c5.7,0,9.7,0,9.7,0v4.7H66.4
		c0,0-9.1-1.3-8.9-10.9v-3.5c0,0-0.3-8.9,9.8-10.3H79.4z"/>
	<path class="st2" d="M110,25.8v3.1h-7.7c0,0-1.6-0.1-2.2,1.9c-0.5,1.9-0.4,4.5,0,5.6c0.4,1.1,1.2,2,2.2,2.2h4.1l0-3.3l-3.9,0V32
		h7.5v9.6h-8.1c0,0-5-0.8-5.5-5.3V31c0,0,0.6-4.6,4.9-5.2H110z"/>
	<path class="st2" d="M114.6,32.4h8.9v3.1h-8.9c0,0-0.3,2.3,1.9,3.1h7v3.1h-7.3c0,0-5-0.2-5.8-5.9v-3.9c0,0,0.4-4.9,5-5.7h8.1v3.1
		h-6.7C116.9,29.1,114.2,29.7,114.6,32.4z"/>
	<path class="st2" d="M14.6,41.4h12.1c0,0-0.5,11,5.1,13.1h32.5l1.1,2.2H23.3C23.3,56.7,13.5,56.2,14.6,41.4z"/>
	<path class="st2" d="M104.7,12.1c0,0,6.2,1.1,5.8,12.1h12.9c0,0,1.6-11.9-9.7-14.1H59l-1.1,2L104.7,12.1z"/>
	<path class="st2" d="M48.6,24.7l21,30.1h35.6c0,0,6.5-0.8,5.6-11.4h12.5c0,0,1.3,11.3-8.9,13.3H67.1L46.2,27.8l-3.4,4.8l-4.3,0
		l5.5-7.8l-5.4-7.7h4.7l3,4.4L54,10.1h4.4L48.6,24.7z"/>
	<path class="st2" d="M80.4,31.2c0,0,0.7-4,5.3-5c0,0,3.2-0.7,6.2,0.3c3,0.9,4.1,3.7,4.3,5.1c0,0,0.2,2.9,0,4.3c0,0-0.4,4.8-5.4,5.7
		c0,0-4.2,0.4-5.1-0.1c0,0-5.2-0.5-5.5-6.8L80.4,31.2z M87.9,28.7c-2.5,0-3.8,2-3.8,4.9c0,4.1,1.7,5.5,4,5.5c2.2,0,4.1-1.4,4.1-5.4
		C92.2,30.9,90.9,28.7,87.9,28.7z"/>
	<path class="st2" d="M19.6,66.4l-1,1c-0.7-0.7-1.5-1.1-2.3-1.1c-0.7,0-1.3,0.2-1.8,0.7c-0.5,0.5-0.8,1.1-0.8,1.8
		c0,0.5,0.1,1,0.3,1.4c0.2,0.4,0.5,0.7,0.9,0.9c0.4,0.2,0.9,0.3,1.3,0.3c0.4,0,0.8-0.1,1.2-0.2c0.3-0.2,0.7-0.4,1.2-0.9l1,1
		C19,72,18.5,72.3,18,72.6c-0.5,0.2-1.1,0.3-1.7,0.3c-1.2,0-2.2-0.4-2.9-1.1c-0.8-0.8-1.1-1.7-1.1-2.9c0-0.8,0.2-1.4,0.5-2
		c0.3-0.6,0.8-1.1,1.5-1.4c0.6-0.4,1.3-0.5,2.1-0.5c0.6,0,1.2,0.1,1.8,0.4C18.7,65.5,19.2,65.9,19.6,66.4z"/>
	<path class="st2" d="M24.5,64.8c1.1,0,2,0.4,2.8,1.2c0.8,0.8,1.2,1.7,1.2,2.9c0,1.1-0.4,2.1-1.2,2.8c-0.8,0.8-1.7,1.2-2.8,1.2
		c-1.1,0-2.1-0.4-2.9-1.2c-0.8-0.8-1.1-1.7-1.1-2.8c0-0.7,0.2-1.4,0.5-2c0.4-0.6,0.8-1.1,1.5-1.5C23.1,65,23.8,64.8,24.5,64.8z
		 M24.5,66.3c-0.7,0-1.3,0.2-1.8,0.7c-0.5,0.5-0.7,1.1-0.7,1.9c0,0.8,0.3,1.5,0.9,2c0.5,0.4,1,0.6,1.6,0.6c0.7,0,1.3-0.2,1.8-0.7
		c0.5-0.5,0.7-1.1,0.7-1.8c0-0.7-0.2-1.3-0.7-1.8S25.2,66.3,24.5,66.3z"/>
	<path class="st2" d="M29.8,65h1.4l3.3,5v-5h1.5v7.6h-1.4l-3.3-5v5h-1.5V65z"/>
	<path class="st2" d="M41.7,66.1l-1.1,1c-0.4-0.5-0.8-0.8-1.2-0.8c-0.2,0-0.3,0.1-0.5,0.2c-0.1,0.1-0.2,0.2-0.2,0.3
		c0,0.1,0,0.2,0.1,0.4c0.1,0.2,0.5,0.5,1.1,1c0.6,0.5,0.9,0.8,1,0.9c0.3,0.3,0.5,0.6,0.6,0.9c0.1,0.3,0.2,0.6,0.2,0.9
		c0,0.6-0.2,1.1-0.7,1.6c-0.4,0.4-1,0.6-1.7,0.6c-0.5,0-1-0.1-1.4-0.4s-0.8-0.7-1-1.3l1.2-0.7c0.4,0.7,0.8,1,1.3,1
		c0.2,0,0.5-0.1,0.6-0.2s0.3-0.3,0.3-0.5c0-0.2-0.1-0.3-0.2-0.5c-0.1-0.2-0.4-0.4-0.8-0.8c-0.8-0.7-1.4-1.2-1.6-1.6
		c-0.2-0.4-0.4-0.7-0.4-1.1c0-0.5,0.2-1,0.6-1.4c0.4-0.4,0.9-0.6,1.5-0.6c0.4,0,0.7,0.1,1.1,0.3C40.9,65.3,41.3,65.6,41.7,66.1z"/>
	<path class="st2" d="M46.8,64.8c1.1,0,2,0.4,2.8,1.2c0.8,0.8,1.2,1.7,1.2,2.9c0,1.1-0.4,2.1-1.2,2.8c-0.8,0.8-1.7,1.2-2.8,1.2
		c-1.1,0-2.1-0.4-2.9-1.2c-0.8-0.8-1.1-1.7-1.1-2.8c0-0.7,0.2-1.4,0.5-2c0.4-0.6,0.8-1.1,1.5-1.5C45.4,65,46.1,64.8,46.8,64.8z
		 M46.8,66.3c-0.7,0-1.3,0.2-1.8,0.7c-0.5,0.5-0.7,1.1-0.7,1.9c0,0.8,0.3,1.5,0.9,2c0.5,0.4,1,0.6,1.6,0.6c0.7,0,1.3-0.2,1.8-0.7
		c0.5-0.5,0.7-1.1,0.7-1.8c0-0.7-0.2-1.3-0.7-1.8C48.1,66.5,47.5,66.3,46.8,66.3z"/>
	<path class="st2" d="M52.2,65h1.5c0.8,0,1.4,0.1,1.8,0.2c0.4,0.2,0.6,0.4,0.9,0.8c0.2,0.3,0.3,0.8,0.3,1.2c0,0.5-0.1,0.9-0.4,1.3
		c-0.2,0.3-0.6,0.6-1.1,0.8l1.8,3.4h-1.6l-1.7-3.2h-0.1v3.2h-1.5V65z M53.7,68h0.5c0.5,0,0.8-0.1,1-0.2c0.2-0.1,0.3-0.3,0.3-0.6
		c0-0.2,0-0.3-0.1-0.4c-0.1-0.1-0.2-0.2-0.3-0.3c-0.1-0.1-0.4-0.1-0.8-0.1h-0.4V68z"/>
	<path class="st2" d="M65.3,66.4l-1,1c-0.7-0.7-1.5-1.1-2.3-1.1c-0.7,0-1.3,0.2-1.8,0.7c-0.5,0.5-0.8,1.1-0.8,1.8
		c0,0.5,0.1,1,0.3,1.4c0.2,0.4,0.5,0.7,0.9,0.9c0.4,0.2,0.9,0.3,1.3,0.3c0.4,0,0.8-0.1,1.2-0.2c0.3-0.2,0.7-0.4,1.2-0.9l1,1
		c-0.6,0.6-1.1,0.9-1.6,1.1c-0.5,0.2-1.1,0.3-1.7,0.3c-1.2,0-2.2-0.4-2.9-1.1c-0.8-0.8-1.1-1.7-1.1-2.9c0-0.8,0.2-1.4,0.5-2
		c0.3-0.6,0.8-1.1,1.5-1.4c0.6-0.4,1.3-0.5,2.1-0.5c0.6,0,1.2,0.1,1.8,0.4C64.4,65.5,64.9,65.9,65.3,66.4z"/>
	<path class="st2" d="M66.5,65h1.4v7.6h-1.4V65z"/>
	<path class="st2" d="M73.2,64.8c1.1,0,2,0.4,2.8,1.2c0.8,0.8,1.2,1.7,1.2,2.9c0,1.1-0.4,2.1-1.2,2.8c-0.8,0.8-1.7,1.2-2.8,1.2
		c-1.1,0-2.1-0.4-2.9-1.2c-0.8-0.8-1.1-1.7-1.1-2.8c0-0.7,0.2-1.4,0.5-2c0.4-0.6,0.8-1.1,1.5-1.5C71.8,65,72.5,64.8,73.2,64.8z
		 M73.2,66.3c-0.7,0-1.3,0.2-1.8,0.7c-0.5,0.5-0.7,1.1-0.7,1.9c0,0.8,0.3,1.5,0.9,2c0.5,0.4,1,0.6,1.6,0.6c0.7,0,1.3-0.2,1.8-0.7
		c0.5-0.5,0.7-1.1,0.7-1.8c0-0.7-0.2-1.3-0.7-1.8S73.9,66.3,73.2,66.3z"/>
	<path class="st2" d="M81.5,65h4.2v1.4h-2.7v1.4h2.7v1.4h-2.7v2h2.7v1.4h-4.2V65z"/>
	<path class="st2" d="M86.5,65h1.6l1.6,2.5l1.6-2.5H93l-2.4,3.7l2.6,3.9h-1.6L89.8,70L88,72.7h-1.6l2.6-3.9L86.5,65z"/>
	<path class="st2" d="M101.3,66.4l-1,1c-0.7-0.7-1.5-1.1-2.3-1.1c-0.7,0-1.3,0.2-1.8,0.7c-0.5,0.5-0.8,1.1-0.8,1.8
		c0,0.5,0.1,1,0.3,1.4c0.2,0.4,0.5,0.7,0.9,0.9c0.4,0.2,0.9,0.3,1.3,0.3c0.4,0,0.8-0.1,1.2-0.2c0.3-0.2,0.7-0.4,1.2-0.9l1,1
		c-0.6,0.6-1.1,0.9-1.6,1.1c-0.5,0.2-1.1,0.3-1.7,0.3c-1.2,0-2.2-0.4-2.9-1.1c-0.8-0.8-1.1-1.7-1.1-2.9c0-0.8,0.2-1.4,0.5-2
		c0.3-0.6,0.8-1.1,1.5-1.4c0.6-0.4,1.3-0.5,2.1-0.5c0.6,0,1.2,0.1,1.8,0.4C100.4,65.5,100.9,65.9,101.3,66.4z"/>
	<path class="st2" d="M106.2,64.8c1.1,0,2,0.4,2.8,1.2c0.8,0.8,1.2,1.7,1.2,2.9c0,1.1-0.4,2.1-1.2,2.8c-0.8,0.8-1.7,1.2-2.8,1.2
		c-1.1,0-2.1-0.4-2.9-1.2c-0.8-0.8-1.1-1.7-1.1-2.8c0-0.7,0.2-1.4,0.5-2c0.4-0.6,0.8-1.1,1.5-1.5C104.8,65,105.5,64.8,106.2,64.8z
		 M106.2,66.3c-0.7,0-1.3,0.2-1.8,0.7c-0.5,0.5-0.7,1.1-0.7,1.9c0,0.8,0.3,1.5,0.9,2c0.5,0.4,1,0.6,1.6,0.6c0.7,0,1.3-0.2,1.8-0.7
		c0.5-0.5,0.7-1.1,0.7-1.8c0-0.7-0.2-1.3-0.7-1.8S106.9,66.3,106.2,66.3z"/>
	<path class="st2" d="M118.6,66.3l-1,1c-0.6-0.7-1.4-1-2.3-1c-0.8,0-1.4,0.2-1.9,0.7c-0.5,0.5-0.8,1.1-0.8,1.8
		c0,0.7,0.3,1.4,0.8,1.9c0.5,0.5,1.2,0.8,2,0.8c0.5,0,0.9-0.1,1.3-0.3c0.3-0.2,0.6-0.5,0.8-1h-2.2v-1.4h3.8l0,0.3
		c0,0.7-0.2,1.3-0.5,1.9c-0.3,0.6-0.8,1.1-1.3,1.4c-0.6,0.3-1.2,0.5-1.9,0.5c-0.8,0-1.5-0.2-2.1-0.5c-0.6-0.3-1.1-0.8-1.5-1.5
		c-0.4-0.6-0.5-1.3-0.5-2.1c0-1,0.3-1.9,1-2.6c0.8-0.9,1.8-1.3,3.1-1.3c0.7,0,1.3,0.1,1.9,0.4C117.6,65.4,118.1,65.8,118.6,66.3z"/>
	<path class="st2" d="M120.4,65h4.2v1.4h-2.7v1.4h2.7v1.4h-2.7v2h2.7v1.4h-4.2V65z"/>
	<g>
		<path class="st1" d="M32.8,50.5h-2.4v-1.1h2.2c0,0,0.4-0.4-0.1-0.7h-1.6c0,0-0.5-0.2-0.5-0.6v-1c0,0,0.1-0.5,0.7-0.5
			c0.6,0,2.6,0,2.6,0v0.9h-2.2l0,0.4H33c0,0,0.7,0.2,0.8,0.8v1C33.8,49.7,33.7,50.5,32.8,50.5z"/>
		<path class="st1" d="M35.3,49.9c0,0.3-0.2,0.6-0.6,0.6h-0.2c-0.3,0-0.6-0.2-0.6-0.6l0,0c0-0.3,0.2-0.6,0.6-0.6h0.2
			C35,49.3,35.3,49.6,35.3,49.9L35.3,49.9z"/>
		<path class="st1" d="M35.3,50.5l1.2-3.9h1l1.6,3.9H38l-0.3-0.9h-1.2l-0.3,0.9H35.3z M37.4,48.6L37,47.9c0,0-0.3,0.7-0.3,0.8H37.4z
			"/>
		<path class="st1" d="M40.5,49.9c0,0.3-0.2,0.6-0.6,0.6h-0.2c-0.3,0-0.6-0.2-0.6-0.6l0,0c0-0.3,0.2-0.6,0.6-0.6H40
			C40.3,49.3,40.5,49.6,40.5,49.9L40.5,49.9z"/>
		<path class="st1" d="M43.6,46.5c0,0,0.9,0.3,0.9,0.9v2c0,0-0.1,0.8-0.9,1.1c0,0,0,0,0,0h-2.2v-3.9H43.6z M42.4,47.4v2h0.9
			c0.4-0.1,0.4-0.4,0.4-0.4v-1.1c0-0.4-0.4-0.5-0.4-0.5H42.4z"/>
		<path class="st1" d="M46,47.8h2v1.1h-2c0,0,0,0.3,0.2,0.4H48v1.1h-2c0,0-1-0.3-1.1-1.1v-1.9c0,0,0.3-1.1,1.2-0.9H48v0.9h-1.7
			C46.3,47.4,46,47.3,46,47.8z"/>
		<path class="st1" d="M53.9,49.9c0,0.3-0.2,0.6-0.6,0.6h-0.2c-0.3,0-0.6-0.2-0.6-0.6l0,0c0-0.3,0.2-0.6,0.6-0.6h0.2
			C53.7,49.4,53.9,49.6,53.9,49.9L53.9,49.9z"/>
		<path class="st1" d="M57.3,49.9c0,0.3-0.2,0.6-0.6,0.6h-0.2c-0.3,0-0.6-0.2-0.6-0.6l0,0c0-0.3,0.2-0.6,0.6-0.6h0.2
			C57.1,49.4,57.3,49.6,57.3,49.9L57.3,49.9z"/>
		<path class="st1" d="M52.3,46.5v0.9h-1.5c0,0-0.4,0.1-0.5,0.5v1.2c0,0,0.1,0.3,0.4,0.2h1.5v1.1h-1.8c0,0-1.1-0.3-1.3-1.3v-1.5
			c0,0,0.2-1.1,1.1-1.1H52.3z"/>
		<polygon class="st1" points="53.2,46.5 54.3,46.5 55.2,48.9 56.2,46.5 57.2,46.5 55.8,50.4 54.7,50.4 		"/>
	</g>
	<g>
		<g>
			<path class="st2" d="M33.2,50.8h-2.4v-1.1h2.2c0,0,0.4-0.4-0.1-0.7h-1.6c0,0-0.4-0.2-0.5-0.6v-1c0,0,0.1-0.5,0.7-0.5
				c0.6,0,2.6,0,2.6,0v0.9h-2.2l0,0.4h1.5c0,0,0.7,0.2,0.8,0.8v1C34.2,50,34.1,50.8,33.2,50.8z"/>
		</g>
		<path class="st2" d="M35.6,50.3c0,0.3-0.2,0.6-0.6,0.6h-0.2c-0.3,0-0.5-0.2-0.5-0.6l0,0c0-0.3,0.2-0.6,0.5-0.6h0.2
			C35.4,49.7,35.6,50,35.6,50.3L35.6,50.3z"/>
		<path class="st2" d="M35.7,50.8l1.2-3.9h1l1.6,3.9h-1.1l-0.3-0.9h-1.2l-0.3,0.9H35.7z M37.8,48.9l-0.4-0.8c0,0-0.3,0.7-0.3,0.8
			H37.8z"/>
		<path class="st2" d="M40.9,50.2c0,0.3-0.2,0.6-0.6,0.6h-0.2c-0.3,0-0.6-0.2-0.6-0.6l0,0c0-0.3,0.2-0.6,0.6-0.6h0.2
			C40.6,49.7,40.9,49.9,40.9,50.2L40.9,50.2z"/>
		<path class="st2" d="M44,46.9c0,0,0.9,0.3,0.9,0.9v2c0,0-0.1,0.8-0.9,1.1c0,0,0,0,0,0h-2.2v-3.9H44z M42.7,47.8v2h0.9
			c0.4,0,0.4-0.4,0.4-0.4v-1.1c0-0.4-0.4-0.5-0.4-0.5H42.7z"/>
		<path class="st2" d="M46.4,48.1h2v1.1h-2c0,0,0,0.3,0.2,0.4h1.8v1.1h-2c0,0-1-0.3-1.1-1.1v-1.9c0,0,0.3-1.1,1.2-0.9h1.9v0.9h-1.7
			C46.6,47.7,46.4,47.7,46.4,48.1z"/>
		<path class="st2" d="M54.3,50.2c0,0.3-0.2,0.6-0.6,0.6h-0.2c-0.3,0-0.6-0.2-0.6-0.6l0,0c0-0.3,0.2-0.6,0.6-0.6h0.2
			C54,49.7,54.3,49.9,54.3,50.2L54.3,50.2z"/>
		<path class="st2" d="M57.7,50.2c0,0.3-0.2,0.6-0.6,0.6H57c-0.3,0-0.6-0.2-0.6-0.6l0,0c0-0.3,0.2-0.6,0.6-0.6h0.2
			C57.5,49.7,57.7,49.9,57.7,50.2L57.7,50.2z"/>
		<path class="st2" d="M52.7,46.9v0.9h-1.5c0,0-0.4,0.1-0.5,0.5v1.2c0,0,0.1,0.3,0.4,0.2h1.5v1.1h-1.8c0,0-1.1-0.3-1.3-1.3V48
			c0,0,0.2-1.1,1.1-1.1H52.7z"/>
		<polygon class="st2" points="53.6,46.8 54.6,46.8 55.6,49.2 56.5,46.8 57.5,46.8 56.1,50.8 55.1,50.8 		"/>
	</g>
</g>
</svg>
